<?xml version="1.0" standalone="no"?><!DOCTYPE svg PUBLIC "-//W3C//DTD SVG 1.1//EN" "http://www.w3.org/Graphics/SVG/1.1/DTD/svg11.dtd"><svg t="1773384827351" class="icon" viewBox="0 0 1081 1024" version="1.1" xmlns="http://www.w3.org/2000/svg" p-id="1426" xmlns:xlink="http://www.w3.org/1999/xlink" width="211.1328125" height="200"><path d="M666.921845 0l-73.73136 226.893411-4.919423 15.198219 20.297621-4.079522 127.365075-25.616998L666.921845 0z" fill="#4285F4" p-id="1427"></path><path d="M560.114362 284.32668L0 394.073819l259.769558 55.073547 263.76909-114.146624 36.575714-50.674062z" fill="#EA4335" p-id="1428"></path><path d="M811.904855 468.065149l-54.933563 47.234464-1.819786 1.559818L713.916338 552.315276l-12.11858 10.418779L597.92993 652.043589l363.977346 267.528649L811.904855 468.065149z" fill="#4285F4" p-id="1429"></path><path d="M744.912706 351.078858m-24.997071 0a24.997071 24.997071 0 1 0 49.994141 0 24.997071 24.997071 0 1 0-49.994141 0Z" fill="#EA4335" p-id="1430"></path><path d="M654.483303 462.365817l97.70855 4.739444L1081.873218 182.09866l-464.305589 90.96934-68.232004 94.54892-0.179979-0.119986-221.774011 95.968754 71.731594 15.198219 290.865914-125.865251c0-0.579932-0.039995-1.159864-0.039995-1.739796 0-30.37644 24.617115-54.993555 54.993555-54.993555s54.993555 24.617115 54.993556 54.993555-24.617115 54.993555-54.993556 54.993556c-15.378198 0-29.256571-6.319259-39.235402-16.478069l-289.066125 125.085341-36.35574 60.012968-5.379369 8.898957 279.587236-120.885834v-0.33996zM339.280241 642.284732L107.987345 1024 653.123462 552.735226l46.25458-39.995313 9.198922-7.939069-46.114596-2.239738-323.182127 139.723626z" fill="#EA4335" p-id="1431"></path><path d="M431.18947 888.695856c-7.039175-4.719447-12.258563-10.978713-15.638167-18.737804l20.377612-9.498887c1.679803 4.559466 4.319494 8.01906 7.919072 10.378784 3.579581 2.359723 7.699098 3.539585 12.338554 3.539585s8.638988-0.859899 11.458657-2.599695c2.81967-1.719798 4.239503-3.979534 4.239503-6.779206 0-1.939773-0.499941-3.539585-1.519822-4.819435-1.01988-1.259852-2.81967-2.459712-5.439362-3.599578-2.619693-1.139866-6.499238-2.419716-11.658634-3.859548-6.839199-1.939773-12.518533-3.879545-17.038004-5.819318-4.51947-1.939773-8.499004-4.999414-11.958598-9.178925s-5.199391-9.678866-5.199391-16.518064c0-6.079288 1.699801-11.498653 5.1194-16.278092 3.419599-4.759442 8.059056-8.499004 13.918369-11.198688 5.859313-2.699684 12.338554-4.059524 19.437722-4.059524 18.057884 0 31.016365 8.319025 38.875445 24.937078l-20.257626 9.498886c-2.199742-4.639456-4.819435-7.979065-7.85908-9.998828-3.039644-2.019763-6.719213-3.039644-11.018708-3.039644-4.059524 0-7.419131 0.859899-10.118814 2.599696-2.699684 1.739796-4.059524 3.859548-4.059525 6.39925 0 2.019763 0.519939 3.699566 1.579815 4.999414 1.059876 1.319845 2.859665 2.519705 5.439363 3.599578 2.579698 1.099871 6.479241 2.359723 11.718626 3.799555 6.65922 1.779791 12.278561 3.639573 16.838027 5.579346 4.559466 1.939773 8.558997 4.979416 12.018592 9.118931 3.459595 4.139515 5.199391 9.658868 5.19939 16.578058 0 6.419248-1.679803 12.058587-5.059407 16.898019-3.379604 4.859431-8.079053 8.598992-14.118345 11.198688-6.039292 2.619693-12.938484 3.919541-20.697575 3.919541-9.538882 0-17.83791-2.359723-24.877084-7.099168zM549.775573 894.015233h-23.557239v-80.530563H498.741554v-22.037418h78.510799v22.037418h-27.47678v80.530563zM622.327071 851.340234l-9.878842-29.256572h-0.759911l-9.878843 29.256572-7.599109 22.037417-6.959184 20.637582h-24.937078l37.735578-102.567981h24.05718l37.735578 102.567981h-24.937077l-6.959185-20.637582M717.915869 894.015233l-17.597938-34.81592h-13.418427v34.81592h-23.557239v-102.567981h36.475725c8.439011 0 15.69816 1.379838 21.777448 4.119518 6.079288 2.739679 10.718744 6.639222 13.938367 11.718626 3.199625 5.059407 4.819435 11.058704 4.819435 17.977893s-1.479827 12.638519-4.43948 17.657931c-2.959653 5.019412-7.179159 8.918955-12.658516 11.718627l22.277389 39.375386h-27.596766z m-31.016365-81.290474v25.077061h9.498887c6.419248 0 11.338671-1.079873 14.75827-3.219623 3.419599-2.159747 5.1194-5.259384 5.1194-9.29891s-1.699801-7.159161-5.1194-9.29891c-3.419599-2.159747-8.339023-3.219623-14.75827-3.219623h-9.498887z" fill="#4285F4" p-id="1432"></path><path d="M467.265242 960.247471c6.819201 0.979885 11.958599 3.199625 15.438191 6.679217 3.479592 3.479592 5.219388 8.099051 5.219389 13.858376 0 8.239034-3.259618 14.558294-9.758857 18.977776-6.519236 4.419482-15.798149 6.619224-27.836738 6.619225h-34.355974v-90.949342h33.236106c11.078702 0 19.597703 2.039761 25.537007 6.119283 5.959302 4.079522 8.918955 9.89884 8.918955 17.457954 0 10.478772-5.45936 17.337968-16.398079 20.557591v0.67992z m-30.436433-25.936961v16.618053h9.758857c5.019412 0 8.878959-0.739913 11.558645-2.239737 2.699684-1.499824 4.039527-3.639573 4.039527-6.399251 0-2.539702-1.339843-4.499473-3.979534-5.899308-2.659688-1.379838-6.499238-2.079756-11.51865-2.079757h-9.878843z m10.998711 53.233762c5.979299 0 10.618756-0.779909 13.858376-2.359723 3.259618-1.579815 4.879428-3.859548 4.879428-6.839199 0-2.759677-1.61981-4.879428-4.879428-6.339257s-7.919072-2.179745-13.978362-2.179745h-10.898723v17.737922h10.998712zM512.559934 1002.24255c-6.319259-3.819552-11.198688-9.258915-14.598289-16.338086-3.399602-7.07917-5.099402-15.398196-5.099402-24.977073s1.699801-17.9179 5.099402-24.977073c3.399602-7.07917 8.27903-12.518533 14.598289-16.338085 6.319259-3.819552 13.758388-5.71933 22.297387-5.71933s15.95813 1.919775 22.297387 5.71933c6.319259 3.819552 11.198688 9.258915 14.59829 16.338085 3.399602 7.07917 5.099402 15.398196 5.099402 24.977073s-1.699801 17.9179-5.099402 24.977073c-3.399602 7.07917-8.27903 12.518533-14.59829 16.338086-6.319259 3.819552-13.758388 5.71933-22.297387 5.719329s-15.95813-1.919775-22.297387-5.719329z m37.395618-21.217514c3.699566-4.939421 5.559349-11.638636 5.559349-20.097645s-1.859782-15.158224-5.559349-20.097644c-3.699566-4.939421-8.738976-7.419131-15.098231-7.419131s-11.398664 2.479709-15.09823 7.419131c-3.699566 4.939421-5.559349 11.638636-5.559349 20.097644s1.859782 15.158224 5.559349 20.097645 8.738976 7.419131 15.09823 7.419131 11.398664-2.479709 15.098231-7.419131zM601.489513 1002.24255c-6.319259-3.819552-11.198688-9.258915-14.598289-16.338086-3.399602-7.07917-5.099402-15.398196-5.099403-24.977073s1.699801-17.9179 5.099403-24.977073c3.399602-7.07917 8.27903-12.518533 14.598289-16.338085 6.319259-3.819552 13.758388-5.71933 22.297387-5.71933s15.95813 1.919775 22.297387 5.71933c6.319259 3.819552 11.198688 9.258915 14.598289 16.338085 3.399602 7.07917 5.099402 15.398196 5.099403 24.977073s-1.699801 17.9179-5.099403 24.977073c-3.399602 7.07917-8.27903 12.518533-14.598289 16.338086-6.319259 3.819552-13.758388 5.71933-22.297387 5.719329s-15.95813-1.919775-22.297387-5.719329z m37.395618-21.217514c3.699566-4.939421 5.559349-11.638636 5.559348-20.097645s-1.859782-15.158224-5.559348-20.097644c-3.699566-4.939421-8.738976-7.419131-15.098231-7.419131s-11.398664 2.479709-15.098231 7.419131c-3.699566 4.939421-5.559349 11.638636-5.559348 20.097644s1.859782 15.158224 5.559348 20.097645 8.738976 7.419131 15.098231 7.419131 11.398664-2.479709 15.098231-7.419131zM681.880092 1001.682615c-6.259266-4.199508-10.878725-9.738859-13.858376-16.618052l18.077882-8.419014c1.499824 4.039527 3.83955 7.119166 7.019177 9.198922 3.179627 2.099754 6.839199 3.139632 10.938718 3.139632s7.659102-0.759911 10.15881-2.29973c2.499707-1.53982 3.759559-3.539585 3.759559-5.999297 0-1.719798-0.439948-3.139632-1.339843-4.259501s-2.499707-2.199742-4.819435-3.199625c-2.319728-1.01988-5.759325-2.159747-10.338788-3.419599-6.05929-1.719798-11.098699-3.439597-15.098231-5.159396-3.999531-1.719798-7.539117-4.43948-10.618756-8.139046-3.079639-3.699566-4.599461-8.578995-4.599461-14.658282 0-5.399367 1.519822-10.198805 4.539468-14.41831 3.039644-4.219506 7.139163-7.539117 12.358552-9.938836 5.199391-2.399719 10.938718-3.599578 17.23798-3.599578 16.018123 0 27.516775 7.379135 34.47596 22.117408l-17.957896 8.419014c-1.939773-4.119517-4.259501-7.07917-6.959184-8.87896-2.699684-1.799789-5.959302-2.699684-9.758857-2.699683-3.599578 0-6.579229 0.759911-8.978947 2.29973-2.399719 1.53982-3.599578 3.419599-3.599579 5.659337 0 1.799789 0.459946 3.279616 1.399836 4.43948 0.93989 1.159864 2.539702 2.21974 4.819436 3.199625 2.279733 0.979885 5.739327 2.099754 10.378783 3.359606 5.919306 1.579815 10.898723 3.219623 14.93825 4.939421 4.039527 1.719798 7.599109 4.419482 10.658751 8.079053 3.059641 3.659571 4.599461 8.578995 4.599461 14.718276 0 5.699332-1.499824 10.678749-4.499473 14.998242-2.999648 4.299496-7.159161 7.619107-12.518533 9.938835-5.359372 2.319728-11.478655 3.479592-18.357849 3.479592-8.459009 0-15.818146-2.099754-22.057415-6.279264zM784.788033 1006.402062H763.910479v-71.411631h-24.357145v-19.537711h69.611842v19.537711h-24.357146v71.411631z" fill="#EA4335" p-id="1433"></path></svg>